<svg width="40" height="40" viewBox="0 0 40 40" fill="none" xmlns="http://www.w3.org/2000/svg">
<path d="M33.75 11.6685H6.25C5.55964 11.6685 5 12.2281 5 12.9185C5 13.6088 5.55964 14.1685 6.25 14.1685H33.75C34.4404 14.1685 35 13.6088 35 12.9185C35 12.2281 34.4404 11.6685 33.75 11.6685Z" fill="black"/>
<path d="M33.75 18.3335H11.25C10.5596 18.3335 10 18.8931 10 19.5835C10 20.2739 10.5596 20.8335 11.25 20.8335H33.75C34.4404 20.8335 35 20.2739 35 19.5835C35 18.8931 34.4404 18.3335 33.75 18.3335Z" fill="black"/>
<path d="M33.75 25.8315H6.25C5.55964 25.8315 5 26.3912 5 27.0815C5 27.7719 5.55964 28.3315 6.25 28.3315H33.75C34.4404 28.3315 35 27.7719 35 27.0815C35 26.3912 34.4404 25.8315 33.75 25.8315Z" fill="black"/>
</svg>
