<svg width="1440" height="857" viewBox="0 0 1440 857" fill="none" xmlns="http://www.w3.org/2000/svg">
<path d="M0 27H1440V707C1440 707 1363.5 856.805 1270.5 856.805C1077.37 856.805 1197.32 456.999 992 449.264C778.362 441.216 748.824 684.771 536 707C228.208 739.148 351.724 -68.1483 86 107.637C41.1074 137.334 0 192.222 0 192.222V27Z" fill="#FFF7F4"/>
<path d="M0 0H1440V633.5C1440 633.5 1379.5 817 1286.5 817C1093.37 817 1207.32 419.452 1002 412.5C788.362 405.266 764.824 613.521 552 633.5C244.208 662.395 367.724 -95.9936 102 62C57.1074 88.6922 0 148.5 0 148.5V0Z" fill="url(#paint0_linear_213_89)"/>
<defs>
<linearGradient id="paint0_linear_213_89" x1="1440" y1="408.5" x2="0" y2="408.5" gradientUnits="userSpaceOnUse">
<stop stop-color="#FFE1D6"/>
<stop offset="1" stop-color="#ECE3FF"/>
</linearGradient>
</defs>
</svg>
