<svg width="60" height="60" viewBox="0 0 60 60" fill="none" xmlns="http://www.w3.org/2000/svg">
<path d="M29.475 28.25H24.3V19.975H30.475C33.625 19.975 35.375 21.375 35.375 23.95C35.375 26.75 33.3 28.25 29.475 28.25ZM30.4 31.075H24.3V40.175H30.7C34.6 40.175 36.65 38.6 36.65 35.6C36.65 32.6 34.525 31.075 30.4 31.075ZM55 12.775V46.225C55 50.75 51.25 54.5 46.725 54.5H13.275C8.75 54.5 5 50.75 5 46.225V12.775C5 8.25 8.75 4.5 13.275 4.5H46.725C51.25 4.5 55 8.25 55 12.775ZM40 35.75C40 32.3 37.7 29.825 34.175 29.375V29.225C36.675 28.775 38.65 26.275 38.65 23.575C38.65 19.7 35.65 17.125 31.25 17.125H21.075V43.025H31.175C36.7 43.025 40 40.3 40 35.75Z" fill="#FFC1A7"/>
</svg>
