<svg width="40" height="40" viewBox="0 0 40 40" fill="none" xmlns="http://www.w3.org/2000/svg">
<path d="M30.3293 28.6628L10.8839 9.21738C10.3957 8.72922 9.60427 8.72922 9.11612 9.21738C8.62796 9.70553 8.62796 10.497 9.11612 10.9851L28.5616 30.4306C29.0497 30.9187 29.8412 30.9187 30.3293 30.4306C30.8175 29.9424 30.8175 29.151 30.3293 28.6628Z" fill="black"/>
<path d="M28.6626 9.67068L9.2172 29.1161C8.72904 29.6043 8.72904 30.3957 9.2172 30.8839C9.70535 31.372 10.4968 31.372 10.985 30.8839L30.4304 11.4384C30.9186 10.9503 30.9186 10.1588 30.4304 9.67068C29.9422 9.18253 29.1508 9.18253 28.6626 9.67068Z" fill="black"/>
</svg>
