<svg width="60" height="60" viewBox="0 0 60 60" fill="none" xmlns="http://www.w3.org/2000/svg">
<g clip-path="url(#clip0_141_66)">
<path d="M59.4501 26.125C56.9086 28.2485 53.6289 29.2777 50.3298 28.9872C47.0307 28.6966 43.9814 27.11 41.8501 24.575C37.4001 19.275 38.1001 11.35 43.3751 6.975L44.6501 6.025C42.5816 8.26784 41.4003 11.1869 41.3267 14.2371C41.2531 17.2873 42.2922 20.26 44.2501 22.6C48.3251 27.45 55.3751 28.4 60.6001 25.025L59.4501 26.125ZM55.0001 36.35C53.1178 37.9372 50.9406 39.1371 48.5934 39.8807C46.2462 40.6244 43.7753 40.8972 41.3224 40.6835C38.8695 40.4698 36.483 39.7738 34.2998 38.6354C32.1165 37.4971 30.1796 35.9388 28.6001 34.05C21.9251 26.125 22.9751 14.3 30.9001 7.6L33.2001 6C30.2303 9.36403 28.5666 13.6823 28.5115 18.1693C28.4564 22.6564 30.0137 27.0141 32.9001 30.45C38.9501 37.6 49.2501 39.175 57.0251 34.4L55.0001 36.35ZM52.1751 48.55C41.0751 57.875 24.5001 56.425 15.1751 45.3C5.87514 34.2 7.32514 17.6 18.4251 8.325L21.2001 6.35C12.4251 15.85 11.8751 30.675 20.4501 40.9C29.0251 51.1 43.7251 53.15 54.6501 46.175L52.1751 48.55Z" fill="#FFC1A7"/>
</g>
<defs>
<clipPath id="clip0_141_66">
<rect width="60" height="60" fill="white"/>
</clipPath>
</defs>
</svg>
