<svg width="60" height="60" viewBox="0 0 60 60" fill="none" xmlns="http://www.w3.org/2000/svg">
<path d="M3 4.5V57H55.5V4.5H3ZM31.5713 45.4444C31.5713 50.5537 28.5713 52.8862 24.2006 52.8862C20.2519 52.8862 17.9663 50.8481 16.7944 48.375L20.8144 45.9488C21.5888 47.3194 22.2919 48.48 23.9906 48.48C25.6069 48.48 26.6381 47.8462 26.6381 45.375V28.605H31.5713V45.4444ZM43.2412 52.8862C38.6587 52.8862 35.6944 50.7075 34.2525 47.8462L38.2725 45.5269C39.3281 47.25 40.71 48.5269 43.1362 48.5269C45.1744 48.5269 46.4888 47.5069 46.4888 46.0894C46.4888 44.4019 45.1519 43.8037 42.8906 42.8081L41.6606 42.2812C38.0981 40.77 35.7431 38.8594 35.7431 34.8394C35.7431 31.1362 38.5669 28.3238 42.9619 28.3238C46.1025 28.3238 48.3525 29.4131 49.9706 32.2725L46.1269 34.7344C45.2831 33.2231 44.3681 32.625 42.9506 32.625C41.5106 32.625 40.5956 33.54 40.5956 34.7344C40.5956 36.2119 41.5106 36.8081 43.6312 37.7344L44.8613 38.2612C49.0575 40.0537 51.4125 41.895 51.4125 46.0181C51.4125 50.4487 47.9194 52.8844 43.2431 52.8844L43.2412 52.8862Z" fill="#FFC1A7"/>
</svg>
