<svg width="60" height="60" viewBox="0 0 60 60" fill="none" xmlns="http://www.w3.org/2000/svg">
<path d="M55.105 27.295C55.105 25.695 55.35 24.75 55.35 23.0275C55.35 20.36 54.3675 19.5 52.1925 19.5H50.59V21.3875H51.08C52.19 21.3875 52.435 21.755 52.435 23.11C52.435 24.3825 52.3125 25.655 52.3125 27.13C52.3125 29.0175 52.9274 29.755 54.16 30.0425V30.165C52.9274 30.455 52.3125 31.1925 52.3125 33.08C52.3125 34.5575 52.435 35.7475 52.435 37.1C52.435 38.495 52.15 38.8625 51.08 38.8625V38.905H50.59V40.875H52.1925C54.3675 40.875 55.35 40.015 55.35 37.3475C55.35 35.5825 55.105 34.68 55.105 33.08C55.105 32.2175 55.6375 31.315 57.24 31.2325V29.1C55.635 29.06 55.105 28.1575 55.105 27.295ZM46.8575 29.7975C45.625 29.3075 44.4775 29.0175 44.4775 28.1975C44.4775 27.5825 44.9699 27.21 45.8724 27.21C46.7749 27.21 47.595 27.58 48.4975 28.2375L50.14 26.0625C49.1175 25.28 47.7199 24.46 45.8299 24.46C43.0424 24.46 41.1525 26.0625 41.1525 28.32C41.1525 30.33 42.9174 31.355 44.3974 31.9275C45.6674 32.4175 46.9 32.83 46.9 33.65C46.9 34.265 46.4075 34.675 45.2975 34.675C44.2724 34.675 43.245 34.265 42.14 33.4025L40.4975 35.7825C41.7275 36.8075 43.615 37.505 45.1749 37.505C48.4575 37.505 50.2224 35.7825 50.2224 33.525C50.2199 31.275 48.455 30.3325 46.8575 29.7975ZM18.8325 34.4325C18.5475 34.4325 18.1775 34.1875 18.1775 33.4075V19.5H12.3475C10.1325 19.5 9.14995 20.36 9.14995 23.0275C9.14995 24.7925 9.39745 25.78 9.39745 27.295C9.39745 28.1575 8.86495 29.06 7.26245 29.1425V31.275C8.86495 31.3175 9.39745 32.22 9.39745 33.0825C9.39745 34.5975 9.14995 35.5025 9.14995 37.2675C9.14995 39.935 10.135 40.795 12.31 40.795H13.91V38.9075H13.4175C12.39 38.9075 12.0625 38.4975 12.0625 37.1425C12.0625 35.7875 12.185 34.64 12.185 33.125C12.185 31.235 11.5725 30.5 10.34 30.2125V30.085C11.5725 29.8 12.185 29.0625 12.185 27.1725C12.185 25.6975 12.0625 24.5075 12.0625 23.155C12.0625 21.8 12.3475 21.4325 13.4175 21.4325H14.5225V33.21C14.5225 35.7125 15.385 37.3525 17.8875 37.3525C18.67 37.3525 19.285 37.2275 19.735 37.065L19.3225 34.4C19.0775 34.4325 18.9575 34.4325 18.8325 34.4325ZM36.9275 29.7975C35.655 29.3075 34.505 29.0175 34.505 28.1975C34.505 27.5825 34.9975 27.21 35.9 27.21C36.8025 27.21 37.6224 27.58 38.5275 28.2375L40.1674 26.0625C39.1425 25.28 37.7475 24.46 35.86 24.46C33.07 24.46 31.18 26.0625 31.18 28.32C31.18 30.33 32.9475 31.355 34.4225 31.9275C35.6975 32.4175 36.9275 32.83 36.9275 33.65C36.9275 34.265 36.4349 34.675 35.3249 34.675C34.2999 34.675 33.275 34.265 32.1649 33.4025L30.565 35.7825C31.795 36.8075 33.6824 37.505 35.2425 37.505C38.525 37.505 40.29 35.7825 40.29 33.525C40.2924 31.275 38.5275 30.3325 36.9275 29.7975ZM24.8225 24.4225C21.8275 24.4225 18.955 26.925 19.0375 30.865C19.0375 34.925 21.7025 37.305 25.235 37.305C26.7125 37.305 28.3525 36.77 29.625 35.91L28.395 33.735C27.495 34.2675 26.63 34.515 25.73 34.515C24.0875 34.515 22.8175 33.735 22.4875 31.85H29.915C29.9575 31.5625 30.0375 30.9875 30.0375 30.3325C30.0774 27.0075 28.27 24.4225 24.8225 24.4225ZM22.485 29.5925C22.7325 27.955 23.715 27.17 24.8625 27.17C26.3425 27.17 26.915 28.1975 26.915 29.5925H22.485Z" fill="#FFC1A7"/>
</svg>
