<svg width="13" height="13" viewBox="0 0 13 13" fill="none" xmlns="http://www.w3.org/2000/svg">
<path fill-rule="evenodd" clip-rule="evenodd" d="M7.96498 9.02607C6.9497 9.77401 5.68931 10.1107 4.43631 9.96868C3.18331 9.82667 2.03024 9.21645 1.20811 8.26027C0.385977 7.30409 -0.0444964 6.07258 0.00293021 4.81244C0.0503568 3.55231 0.57218 2.35664 1.46386 1.46496C2.35554 0.573279 3.55121 0.0514554 4.81134 0.00402884C6.07148 -0.0433978 7.30299 0.387075 8.25917 1.20921C9.21535 2.03134 9.82558 3.18441 9.96759 4.43741C10.1096 5.69041 9.77291 6.9508 9.02498 7.96607L11.78 10.7201C11.8537 10.7887 11.9128 10.8715 11.9538 10.9635C11.9947 11.0555 12.0168 11.1548 12.0186 11.2556C12.0203 11.3563 12.0018 11.4563 11.9641 11.5497C11.9264 11.6431 11.8702 11.7279 11.799 11.7991C11.7278 11.8703 11.643 11.9265 11.5496 11.9642C11.4562 12.0019 11.3562 12.0204 11.2555 12.0187C11.1548 12.0169 11.0554 11.9948 10.9634 11.9539C10.8714 11.9129 10.7886 11.8538 10.72 11.7801L7.96498 9.02607ZM8.49998 5.00007C8.49998 5.92833 8.13123 6.81857 7.47485 7.47495C6.81847 8.13133 5.92823 8.50007 4.99998 8.50007C4.07172 8.50007 3.18148 8.13133 2.5251 7.47495C1.86872 6.81857 1.49998 5.92833 1.49998 5.00007C1.49998 4.07182 1.86872 3.18158 2.5251 2.5252C3.18148 1.86882 4.07172 1.50007 4.99998 1.50007C5.92823 1.50007 6.81847 1.86882 7.47485 2.5252C8.13123 3.18158 8.49998 4.07182 8.49998 5.00007Z" fill="#FFC1A7"/>
</svg>
