<svg width="60" height="60" viewBox="0 0 60 60" fill="none" xmlns="http://www.w3.org/2000/svg">
<g clip-path="url(#clip0_141_74)">
<path d="M55.2299 46.2409C51.9679 46.1583 49.4397 46.4897 47.3193 47.4009C46.7076 47.6493 45.7288 47.6495 45.6472 48.4366C45.9735 48.7681 46.0143 49.3067 46.2997 49.7621C46.7896 50.5905 47.6453 51.709 48.4201 52.2893C49.2763 52.9519 50.1329 53.6145 51.0297 54.1945C52.6201 55.1888 54.4145 55.7686 55.964 56.7628C56.8614 57.3424 57.7579 58.0886 58.6551 58.7097C59.1036 59.0407 59.3889 59.5797 59.9601 59.7866V59.6626C59.6744 59.2895 59.5928 58.7512 59.3076 58.3369C58.9002 57.9226 58.4919 57.5497 58.0841 57.1355C56.9017 55.5202 55.4338 54.1116 53.8436 52.9519C52.5388 52.0405 49.6841 50.7978 49.1542 49.265C49.1542 49.265 49.1132 49.2238 49.0726 49.1824C49.9696 49.0995 51.0297 48.7681 51.8863 48.5195C53.2726 48.1464 54.5366 48.2295 55.964 47.8566C56.6162 47.6909 57.2687 47.4838 57.921 47.2766V46.904C57.1874 46.1583 56.6572 45.1643 55.8824 44.46C53.8028 42.6369 51.519 40.8559 49.1542 39.3647C47.89 38.5362 46.2587 37.9976 44.9132 37.2936C44.4243 37.0447 43.6084 36.9207 43.3232 36.5064C42.5889 35.5952 42.1811 34.394 41.6512 33.3169C40.469 31.0383 39.3269 28.5116 38.3073 26.1093C37.5737 24.4936 37.1251 22.8778 36.2279 21.3869C32.0279 14.3447 27.4609 10.0781 20.4475 5.89403C18.9386 5.02427 17.1444 4.65141 15.228 4.19593C14.2089 4.15427 13.1891 4.07165 12.1698 4.02998C11.5173 3.73998 10.8648 2.95308 10.2939 2.58022C7.97006 1.08879 1.97545 -2.14192 0.262873 2.12474C-0.838221 4.81712 1.89412 7.46808 2.83162 8.83546C3.52537 9.78808 4.42209 10.865 4.91147 11.9421C5.19694 12.6459 5.27826 13.3921 5.56373 14.1376C6.21647 15.9597 6.82772 17.99 7.68436 19.6886C8.13295 20.5583 8.62209 21.4695 9.19303 22.2566C9.51928 22.7121 10.09 22.9195 10.2126 23.665C9.64186 24.4936 9.60084 25.7364 9.27436 26.7719C7.80647 31.4528 8.37764 37.2521 10.457 40.6902C11.1093 41.7255 12.659 44.0045 14.7386 43.1343C16.5737 42.3888 16.1659 40.0276 16.6956 37.9564C16.8184 37.4588 16.7369 37.1278 16.9813 36.7964V36.8795C17.5522 38.039 18.1229 39.1578 18.6531 40.3176C19.9173 42.3471 22.119 44.46 23.954 45.8686C24.9329 46.6138 25.7076 47.8981 26.931 48.3538V48.2293H26.8492C26.6045 47.8564 26.2375 47.6909 25.9115 47.4007C25.1776 46.6555 24.3618 45.744 23.7911 44.9155C22.0787 42.5955 20.5696 40.0274 19.224 37.3762C18.5718 36.0924 18.0006 34.6838 17.4707 33.3997C17.2258 32.9021 17.2258 32.1569 16.8182 31.9086C16.2065 32.8197 15.3095 33.6069 14.8609 34.7252C14.0865 36.5064 14.0047 38.7019 13.7193 40.98C13.5562 41.0219 13.6375 40.98 13.5559 41.0633C12.2514 40.7314 11.8028 39.3647 11.3132 38.2047C10.0897 35.2638 9.88584 30.5414 10.9464 27.1447C11.2319 26.2747 12.4553 23.5409 11.9659 22.7124C11.7212 21.9252 10.9054 21.4695 10.457 20.8483C9.92709 20.0612 9.35592 19.0674 8.98912 18.1971C8.01037 15.8774 7.521 13.309 6.46092 10.9893C5.97154 9.91212 5.11561 8.79403 4.42209 7.79974C3.64748 6.68141 2.79108 5.89403 2.17936 4.56855C1.97569 4.11308 1.68998 3.36736 2.01623 2.87022C2.09779 2.53879 2.26069 2.41474 2.58717 2.33189C3.11733 1.87593 4.62623 2.45593 5.15592 2.7045C6.66483 3.32546 7.92881 3.90593 9.19303 4.7757C9.76373 5.18998 10.3755 5.97712 11.1093 6.18427H11.9657C13.2707 6.47403 14.7383 6.26712 15.9618 6.63974C18.1232 7.34379 20.0802 8.3795 21.8338 9.49808C27.1757 12.9362 31.5791 17.8243 34.5562 23.665C35.0455 24.6174 35.2492 25.4878 35.6978 26.4816C36.5544 28.5116 37.6145 30.5828 38.4705 32.5712C39.3269 34.5178 40.1422 36.5064 41.3657 38.1221C41.9774 38.9916 44.4238 39.4476 45.5249 39.9033C46.3405 40.2759 47.6047 40.6076 48.3386 41.0631C49.7249 41.9326 51.1112 42.9274 52.4162 43.8797C53.0687 44.3769 55.1073 45.4126 55.2299 46.2409Z" fill="#FFC1A7"/>
<path d="M13.6374 10.2434C12.9443 10.2434 12.4552 10.3267 11.9658 10.4508V10.5336H12.0474C12.3739 11.1965 12.9443 11.6522 13.3519 12.232C13.6784 12.8946 13.9636 13.5577 14.2901 14.2206C14.3307 14.1789 14.3714 14.1377 14.3714 14.1377C14.9426 13.7232 15.2279 13.0606 15.2279 12.0663C14.9832 11.7765 14.9424 11.4865 14.7385 11.1965C14.494 10.782 13.9636 10.5751 13.6374 10.2434Z" fill="#FFC1A7"/>
</g>
<defs>
<clipPath id="clip0_141_74">
<rect width="60" height="60" fill="white"/>
</clipPath>
</defs>
</svg>
