<svg width="60" height="60" viewBox="0 0 60 60" fill="none" xmlns="http://www.w3.org/2000/svg">
<path d="M30 25.3176C32.575 25.3176 34.675 27.4176 34.675 30.0426C34.675 32.5426 32.575 34.6676 30 34.6676C27.425 34.6676 25.325 32.5426 25.325 30.0426C25.325 27.4176 27.425 25.3176 30 25.3176ZM18.425 50.0426C20 50.9926 23.45 49.5426 27.425 45.7926C26.125 44.3176 24.85 42.7176 23.65 41.0426C21.6356 40.8484 19.6328 40.548 17.65 40.1426C16.375 45.4926 16.85 49.1676 18.425 50.0426ZM20.2 35.6926L19.475 34.4176C19.2 35.1426 18.925 35.8676 18.75 36.5676C19.425 36.7176 20.175 36.8426 20.95 36.9676L20.2 35.6926ZM36.55 33.7926L38.575 30.0426L36.55 26.2926C35.8 24.9676 35 23.7926 34.275 22.6176C32.925 22.5426 31.5 22.5426 30 22.5426C28.5 22.5426 27.075 22.5426 25.725 22.6176C25 23.7926 24.2 24.9676 23.45 26.2926L21.425 30.0426L23.45 33.7926C24.2 35.1176 25 36.2926 25.725 37.4676C27.075 37.5426 28.5 37.5426 30 37.5426C31.5 37.5426 32.925 37.5426 34.275 37.4676C35 36.2926 35.8 35.1176 36.55 33.7926ZM30 16.9926C29.525 17.5426 29.025 18.1176 28.525 18.7926H31.475C30.975 18.1176 30.475 17.5426 30 16.9926ZM30 43.0926C30.475 42.5426 30.975 41.9676 31.475 41.2926H28.525C29.025 41.9676 29.525 42.5426 30 43.0926ZM41.55 10.0426C40 9.09258 36.55 10.5426 32.575 14.2926C33.875 15.7676 35.15 17.3676 36.35 19.0426C38.4 19.2426 40.425 19.5426 42.35 19.9426C43.625 14.5926 43.15 10.9176 41.55 10.0426ZM39.8 24.3926L40.525 25.6676C40.8 24.9426 41.075 24.2176 41.25 23.5176C40.575 23.3676 39.825 23.2426 39.05 23.1176L39.8 24.3926ZM43.425 6.76758C47.1 8.86758 47.5 14.3926 45.95 20.8426C52.3 22.7176 56.875 25.8176 56.875 30.0426C56.875 34.2676 52.3 37.3676 45.95 39.2426C47.5 45.6926 47.1 51.2176 43.425 53.3176C39.775 55.4176 34.8 53.0176 30 48.4426C25.2 53.0176 20.225 55.4176 16.55 53.3176C12.9 51.2176 12.5 45.6926 14.05 39.2426C7.7 37.3676 3.125 34.2676 3.125 30.0426C3.125 25.8176 7.7 22.7176 14.05 20.8426C12.5 14.3926 12.9 8.86758 16.55 6.76758C20.225 4.66758 25.2 7.06758 30 11.6426C34.8 7.06758 39.775 4.66758 43.425 6.76758ZM42.7 30.0426C43.55 31.9176 44.3 33.7926 44.925 35.6926C50.175 34.1176 53.125 31.8676 53.125 30.0426C53.125 28.2176 50.175 25.9676 44.925 24.3926C44.3 26.2926 43.55 28.1676 42.7 30.0426ZM17.3 30.0426C16.45 28.1676 15.7 26.2926 15.075 24.3926C9.825 25.9676 6.875 28.2176 6.875 30.0426C6.875 31.8676 9.825 34.1176 15.075 35.6926C15.7 33.7926 16.45 31.9176 17.3 30.0426ZM39.8 35.6926L39.05 36.9676C39.825 36.8426 40.575 36.7176 41.25 36.5676C41.075 35.8676 40.8 35.1426 40.525 34.4176L39.8 35.6926ZM32.575 45.7926C36.55 49.5426 40 50.9926 41.55 50.0426C43.15 49.1676 43.625 45.4926 42.35 40.1426C40.425 40.5426 38.4 40.8426 36.35 41.0426C35.15 42.7176 33.875 44.3176 32.575 45.7926ZM20.2 24.3926L20.95 23.1176C20.175 23.2426 19.425 23.3676 18.75 23.5176C18.925 24.2176 19.2 24.9426 19.475 25.6676L20.2 24.3926ZM27.425 14.2926C23.45 10.5426 20 9.09258 18.425 10.0426C16.85 10.9176 16.375 14.5926 17.65 19.9426C19.6328 19.5372 21.6356 19.2368 23.65 19.0426C24.85 17.3676 26.125 15.7676 27.425 14.2926Z" fill="#FFC1A7"/>
</svg>
