<svg width="105" height="259" viewBox="0 0 105 259" fill="none" xmlns="http://www.w3.org/2000/svg">
<path d="M5.45434 157L6.89105 156.569L5.45434 157ZM102.917 255.508C103.72 255.304 104.205 254.488 104.001 253.685L100.68 240.6C100.476 239.797 99.6599 239.312 98.857 239.516C98.054 239.719 97.5683 240.536 97.7721 241.338L100.725 252.97L89.0936 255.922C88.2906 256.126 87.8049 256.942 88.0087 257.745C88.2126 258.548 89.0287 259.034 89.8317 258.83L102.917 255.508ZM35.9543 1C34.5869 0.383419 34.5867 0.384027 34.5862 0.385026C34.5858 0.385882 34.5852 0.387274 34.5844 0.388984C34.5829 0.392405 34.5806 0.397388 34.5777 0.403925C34.5718 0.417 34.5632 0.436288 34.5518 0.461718C34.529 0.512579 34.4953 0.588006 34.4511 0.687416C34.3627 0.886236 34.2322 1.181 34.063 1.56703C33.7247 2.33908 33.2315 3.47628 32.61 4.94129C31.367 7.8712 29.6105 12.1129 27.5532 17.3676C23.4395 27.8751 18.1192 42.4426 13.2965 58.678C8.47529 74.9085 4.14195 92.8367 2.01513 110.059C-0.108822 127.259 -0.0488759 143.879 4.01763 157.431L6.89105 156.569C2.99768 143.594 2.89019 127.451 4.99251 110.427C7.09197 93.426 11.3786 75.6701 16.1723 59.5322C20.9646 43.3993 26.2543 28.9142 30.3468 18.4613C32.3926 13.2357 34.1383 9.02019 35.3717 6.11295C35.9884 4.65938 36.4769 3.53302 36.8108 2.77116C36.9777 2.39024 37.106 2.10045 37.1922 1.90646C37.2354 1.80947 37.268 1.73642 37.2897 1.68792C37.3006 1.66366 37.3087 1.64554 37.3141 1.63363C37.3168 1.62767 37.3188 1.62327 37.32 1.62042C37.3207 1.619 37.3211 1.61804 37.3214 1.61733C37.3217 1.61676 37.3218 1.61658 35.9543 1ZM4.01763 157.431C7.69056 169.671 15.7023 181.9 25.5418 193.315C35.3939 204.745 47.1539 215.444 58.4347 224.621C69.7193 233.801 80.5497 241.477 88.5578 246.858C92.5627 249.55 95.8639 251.668 98.1658 253.115C99.3169 253.839 100.218 254.394 100.833 254.77C101.14 254.958 101.376 255.1 101.535 255.196C101.615 255.244 101.676 255.281 101.717 255.305C101.737 255.318 101.753 255.327 101.764 255.333C101.769 255.337 101.773 255.339 101.776 255.341C101.777 255.341 101.778 255.342 101.779 255.343C101.78 255.343 101.781 255.343 102.548 254.054C103.315 252.765 103.315 252.765 103.314 252.765C103.314 252.765 103.313 252.764 103.312 252.764C103.31 252.762 103.306 252.76 103.301 252.757C103.292 252.752 103.278 252.743 103.258 252.732C103.22 252.709 103.161 252.674 103.084 252.627C102.93 252.534 102.699 252.394 102.397 252.21C101.792 251.84 100.902 251.292 99.7624 250.575C97.4831 249.143 94.2077 247.041 90.231 244.368C82.2758 239.023 71.5231 231.401 60.3278 222.293C49.1286 213.183 37.5121 202.607 27.8141 191.357C18.1036 180.091 10.3918 168.235 6.89105 156.569L4.01763 157.431Z" fill="black"/>
</svg>
