<svg width="135" height="108" viewBox="0 0 135 108" fill="none" xmlns="http://www.w3.org/2000/svg">
<path d="M0.598517 94.1458C0.303036 93.3718 0.690895 92.5049 1.46483 92.2094L14.0769 87.3942C14.8508 87.0987 15.7178 87.4866 16.0133 88.2605C16.3087 89.0344 15.9209 89.9014 15.1469 90.1969L3.93622 94.477L8.2164 105.688C8.51188 106.462 8.12402 107.329 7.35007 107.624C6.57614 107.92 5.7092 107.532 5.41372 106.758L0.598517 94.1458ZM78.4584 86.5186L79.5742 87.521L78.4584 86.5186ZM63.0063 49.7325L64.1751 50.6728L63.0063 49.7325ZM102.286 60.4462L101.29 59.3249L102.286 60.4462ZM79.5742 87.521C65.8543 102.792 46.1157 104.532 30.1246 102.601C22.1009 101.632 14.9286 99.7299 9.76646 98.0735C7.18318 97.2446 5.09766 96.4753 3.65401 95.9115C2.93205 95.6295 2.37022 95.3988 1.98652 95.2375C1.79466 95.1569 1.64729 95.0936 1.54668 95.0499C1.49637 95.0281 1.45775 95.0111 1.43109 94.9994C1.41776 94.9935 1.40743 94.9889 1.40011 94.9857C1.39645 94.984 1.39355 94.9827 1.39141 94.9818C1.39034 94.9813 1.38931 94.9808 1.38877 94.9806C1.38793 94.9802 1.38728 94.9799 1.99986 93.6107C2.61244 92.2415 2.61217 92.2414 2.61209 92.2414C2.61231 92.2415 2.61242 92.2415 2.61288 92.2417C2.61377 92.2421 2.61544 92.2428 2.61785 92.2439C2.62266 92.2461 2.6305 92.2495 2.6413 92.2543C2.6629 92.2638 2.69638 92.2785 2.74147 92.2981C2.83166 92.3372 2.96825 92.3959 3.149 92.4719C3.51054 92.6239 4.04863 92.8449 4.74534 93.117C6.13904 93.6613 8.16597 94.4093 10.683 95.2169C15.7216 96.8337 22.7016 98.6824 30.4843 99.6225C46.106 101.509 64.5967 99.7033 77.3426 85.5161L79.5742 87.521ZM61.8376 48.7923C67.0614 42.2992 72.3553 39.4875 77.17 39.9558C82.0041 40.4261 85.6729 44.1306 87.7912 49.0929C92.03 59.0228 90.6784 75.1611 79.5742 87.521L77.3426 85.5161C87.6967 73.9911 88.7956 59.0872 85.032 50.2707C83.1492 45.8598 80.2035 43.2651 76.8795 42.9417C73.5359 42.6165 69.1278 44.5166 64.1751 50.6728L61.8376 48.7923ZM132.85 0.984022C134.333 1.20776 134.333 1.20831 134.333 1.20901C134.333 1.20943 134.332 1.21027 134.332 1.21111C134.332 1.21279 134.332 1.21505 134.331 1.21786C134.33 1.22349 134.329 1.23138 134.328 1.24151C134.324 1.26175 134.32 1.29093 134.314 1.32883C134.302 1.40464 134.284 1.51538 134.259 1.65944C134.21 1.94754 134.136 2.36899 134.033 2.91095C133.826 3.99475 133.504 5.56112 133.04 7.50724C132.111 11.3982 130.612 16.8145 128.324 22.9315C123.757 35.1422 116.007 50.2612 103.283 61.5675L101.29 59.3249C113.502 48.4736 121.033 33.8615 125.514 21.8806C127.75 15.9017 129.216 10.607 130.122 6.8109C130.574 4.91351 130.887 3.39236 131.086 2.34951C131.185 1.82814 131.256 1.42649 131.301 1.15732C131.324 1.02274 131.341 0.921299 131.352 0.854591C131.357 0.821235 131.361 0.796566 131.363 0.78078C131.364 0.77289 131.365 0.767218 131.366 0.763794C131.366 0.762082 131.366 0.76093 131.366 0.760343C131.366 0.76005 131.366 0.760036 131.366 0.759888C131.366 0.760015 131.366 0.760284 132.85 0.984022ZM103.283 61.5675C90.4668 72.9555 75.0666 76.8582 65.2322 74.4002C60.2739 73.1609 56.4686 70.2024 55.5534 65.5044C54.6614 60.926 56.6435 55.2485 61.8376 48.7923L64.1751 50.6728C59.1927 56.8658 57.8572 61.6416 58.498 64.9307C59.1155 68.1002 61.6932 70.4233 65.9597 71.4897C74.5749 73.6431 88.9912 70.2534 101.29 59.3249L103.283 61.5675Z" fill="black"/>
</svg>
