<svg width="161" height="183" viewBox="0 0 161 183" fill="none" xmlns="http://www.w3.org/2000/svg">
<path d="M160.357 170.706C160.809 170.011 160.612 169.082 159.918 168.63L148.601 161.27C147.906 160.818 146.977 161.015 146.525 161.709C146.074 162.404 146.271 163.333 146.965 163.785L157.025 170.327L150.482 180.387C150.03 181.081 150.227 182.01 150.922 182.462C151.616 182.914 152.545 182.717 152.997 182.023L160.357 170.706ZM56.9557 136.26L55.6713 137.035L56.9557 136.26ZM85.7998 90.1753L84.4779 90.8841L85.7998 90.1753ZM30.2432 92.7641L31.4396 91.8594L30.2432 92.7641ZM55.6713 137.035C70.8033 162.118 96.9058 170.638 118.958 172.942C130.002 174.096 140.101 173.7 147.436 173.018C151.105 172.677 154.089 172.263 156.159 171.934C157.194 171.769 158.002 171.626 158.553 171.523C158.829 171.471 159.04 171.43 159.184 171.401C159.256 171.387 159.312 171.376 159.349 171.368C159.368 171.364 159.383 171.361 159.393 171.359C159.398 171.358 159.402 171.357 159.405 171.356C159.407 171.356 159.408 171.356 159.409 171.356C159.41 171.355 159.411 171.355 159.1 169.888C158.789 168.42 158.789 168.42 158.789 168.42C158.789 168.42 158.789 168.42 158.788 168.421C158.786 168.421 158.784 168.421 158.78 168.422C158.773 168.424 158.761 168.426 158.745 168.429C158.713 168.436 158.663 168.446 158.597 168.459C158.465 168.486 158.265 168.525 158.002 168.574C157.476 168.672 156.695 168.811 155.688 168.971C153.673 169.292 150.755 169.696 147.158 170.031C139.96 170.7 130.066 171.086 119.269 169.958C97.64 167.699 72.6704 159.405 58.2401 135.485L55.6713 137.035ZM87.1218 89.4665C81.4941 78.9706 75.0953 73.6734 68.7618 72.8597C62.3489 72.0358 56.701 75.8779 52.8101 82.0115C45.0356 94.2673 43.427 116.739 55.6713 137.035L58.2401 135.485C46.5155 116.05 48.2454 94.8079 55.3434 83.6185C58.8888 78.0295 63.5608 75.2161 68.3795 75.8352C73.2775 76.4645 79.0221 80.7088 84.4779 90.8841L87.1218 89.4665ZM1.5636 0.971843C0.0636334 0.9613 0.0636298 0.961907 0.0636222 0.962718C0.0636188 0.963259 0.0636142 0.964271 0.0636074 0.965353C0.063594 0.967517 0.0635777 0.970493 0.0635602 0.974275C0.0635221 0.981842 0.0634764 0.992639 0.0634386 1.00663C0.0633662 1.03462 0.0633157 1.0754 0.0634068 1.12871C0.0635919 1.23533 0.0643426 1.39207 0.066564 1.59686C0.0710123 2.00642 0.08136 2.60819 0.104914 3.38547C0.152013 4.93994 0.251936 7.19693 0.463137 10.0227C0.885449 15.6731 1.75319 23.6047 3.53561 32.7459C7.0962 51.0064 14.3276 74.203 29.0467 93.6688L31.4396 91.8594C17.1041 72.9008 9.99569 50.2012 6.48015 32.1717C4.72452 23.1679 3.87011 15.356 3.45479 9.79915C3.24718 7.02135 3.14942 4.8088 3.10354 3.29461C3.0806 2.53757 3.07063 1.95524 3.06639 1.56428C3.06427 1.36881 3.06357 1.22119 3.0634 1.12351C3.06332 1.07467 3.06336 1.03832 3.06343 1.01471C3.06346 1.0029 3.0635 0.994289 3.06352 0.98889C3.06354 0.986192 3.06355 0.984296 3.06355 0.983212C3.06356 0.982669 3.06356 0.982463 3.06356 0.98219C3.06356 0.982187 3.06356 0.982385 1.5636 0.971843ZM29.0467 93.6688C43.8617 113.261 63.7047 123.318 77.3444 122.985C84.2245 122.818 89.8318 119.956 91.9964 113.974C94.0994 108.162 92.7297 99.9256 87.1218 89.4665L84.4779 90.8841C89.9534 101.096 90.8387 108.357 89.1754 112.953C87.5737 117.379 83.3933 119.837 77.2713 119.986C64.9066 120.288 45.8879 110.967 31.4396 91.8594L29.0467 93.6688Z" fill="black"/>
</svg>
