<svg width="60" height="60" viewBox="0 0 60 60" fill="none" xmlns="http://www.w3.org/2000/svg">
<g clip-path="url(#clip0_161_72)">
<path d="M37.2014 28.0103L25.1854 31.9337L14.7323 36.5471L11.8073 37.3196C11.0353 38.0569 10.2449 38.7746 9.43685 39.4721C8.5106 40.2709 7.6481 40.9979 6.98528 41.5243C6.24935 42.1056 5.1595 43.1954 4.60544 43.8859C3.77857 44.9213 3.12513 46.0201 2.84341 46.8648C2.34372 48.3906 2.58935 49.9346 3.55169 51.3606C4.78732 53.177 7.24825 55.0299 10.1179 56.2918C11.5804 56.9373 14.0414 57.7637 15.8948 58.2263C18.9731 59.0078 24.9314 59.8529 28.2098 59.9795C28.8726 60.0071 29.7628 60.0071 29.7989 59.9795C29.872 59.934 30.3806 58.9623 30.9712 57.7548C32.9868 53.6401 34.44 49.7804 35.2308 46.4832C35.7028 44.4854 36.075 41.8243 36.3201 38.6729C36.3839 37.7917 36.4111 34.8399 36.3567 33.841C36.2747 32.2065 36.1293 30.8804 35.902 29.582C35.8659 29.3907 35.857 29.2182 35.8753 29.2088C35.9114 29.1821 36.0206 29.1456 37.5009 28.7185L37.2014 28.0103ZM34.4587 29.6181C34.5679 29.6181 34.8581 32.4057 34.9308 34.1678C34.949 34.5404 34.9401 34.7856 34.9214 34.7856C34.8492 34.7856 33.3867 33.9231 32.3428 33.2687C31.4343 32.6968 29.7084 31.5526 29.4365 31.3342C29.3451 31.2709 29.354 31.2615 30.0989 31.0074C31.3612 30.5809 34.3589 29.6176 34.4583 29.6176L34.4587 29.6181ZM28.3368 31.6337C28.4189 31.6337 28.6275 31.7518 29.1272 32.0607C30.9979 33.2326 33.5414 34.6496 34.6312 35.1217C34.9668 35.267 35.0034 35.2121 34.2314 35.7395C32.5786 36.8654 30.517 37.9735 27.9923 39.0906C27.547 39.2903 27.1743 39.4445 27.1654 39.4445C27.1472 39.4445 27.202 39.2176 27.2747 38.9453C27.8826 36.6835 28.2281 34.3951 28.2464 32.5604C28.2558 31.652 28.2558 31.652 28.3373 31.6248C28.3186 31.6342 28.3279 31.6342 28.3373 31.6342L28.3368 31.6337ZM27.075 32.1151C27.1293 32.1699 27.0928 34.2043 27.0201 34.7584C26.8573 36.0971 26.5778 37.419 26.1848 38.709C26.085 39.0451 25.994 39.3268 25.9758 39.3446C25.9392 39.3901 24.6951 38.1728 24.2864 37.7007C23.5781 36.8832 23.024 36.0662 22.6153 35.267C22.4067 34.8582 22.0795 34.059 22.1067 34.0318C22.252 33.9315 27.0384 32.079 27.075 32.1151ZM21.135 34.4495C21.1439 34.4495 21.1528 34.4495 21.1622 34.4584C21.1804 34.4767 21.2442 34.6224 21.2986 34.7856C21.5892 35.5754 22.2426 36.7379 22.8061 37.4828C23.4239 38.3003 24.232 39.1726 24.9042 39.7445C25.1222 39.9259 25.3218 40.0984 25.349 40.1256C25.4034 40.1804 25.4217 40.171 23.9409 40.7345C22.2253 41.3884 20.354 42.0423 18.2104 42.7323C17.6984 42.8974 17.1868 43.064 16.6758 43.232C16.5937 43.2592 16.6214 43.2132 16.8572 42.841C17.9198 41.1798 19.5361 37.9192 20.4445 35.612C20.5992 35.2121 20.7539 34.8128 20.7811 34.7218C20.8172 34.5948 20.8626 34.5493 20.9803 34.4856C21.044 34.4678 21.1078 34.4495 21.135 34.4495ZM19.3186 35.2032C19.3458 35.2215 18.8826 36.1932 18.4284 37.0829C17.5472 38.7999 16.5848 40.4893 15.2953 42.542C15.0768 42.8959 14.8687 43.2231 14.8406 43.2592C14.7956 43.3229 14.7778 43.3046 14.632 43.0234C14.3231 42.4145 14.069 41.6335 13.9326 40.9159C13.7967 40.2076 13.8239 38.9724 13.9786 38.2093C14.0958 37.6468 14.0873 37.6557 14.3597 37.5193C15.5222 36.9287 19.282 35.1671 19.3186 35.2032ZM34.9851 35.8393V36.2204C34.9851 38.2459 34.7672 41.0251 34.4493 43.0501C34.395 43.4045 34.3495 43.6951 34.3406 43.7045C34.3406 43.7045 34.0772 43.6318 33.7687 43.5409C32.3212 43.0813 30.9218 42.482 29.5903 41.7517C28.709 41.2703 27.4293 40.4799 27.4654 40.4438C27.4743 40.4345 27.8559 40.2348 28.3008 39.9985C30.0811 39.0723 31.7883 38.0734 33.269 37.0829C33.8231 36.7107 34.6584 36.1117 34.8398 35.9481L34.9851 35.8393ZM12.4617 38.5271C12.4978 38.5271 12.4884 38.5998 12.434 38.927C12.3887 39.2494 12.3554 39.5733 12.3342 39.8982C12.2615 41.2248 12.4795 42.2059 13.1334 43.5498C13.3153 43.922 13.4606 44.2309 13.4512 44.2398C13.3879 44.2946 7.37529 46.0567 5.48622 46.5742C4.92325 46.7288 4.43294 46.8648 4.39638 46.8737C4.33263 46.8924 4.32372 46.8831 4.35091 46.7284C4.55997 45.3934 5.57716 43.6496 6.99419 42.1782C7.93825 41.1971 8.69247 40.6253 9.982 39.8898C10.9083 39.3629 12.3342 38.5726 12.4429 38.5365C12.4429 38.5271 12.4523 38.5271 12.4617 38.5271ZM26.6297 41.0612C26.639 41.0518 26.8565 41.1704 27.12 41.3246C29.0639 42.451 31.77 43.4954 34.0767 44.0312L34.2858 44.0767L33.9951 44.2403C32.7876 44.9124 28.8183 46.5653 24.7589 48.0817C24.1683 48.2996 23.587 48.5176 23.4783 48.5631C23.3695 48.6085 23.2692 48.6357 23.2692 48.6263C23.2692 48.617 23.4328 48.2996 23.6414 47.9092C24.7767 45.7838 25.9209 43.1954 26.5026 41.3973C26.5753 41.2248 26.6203 41.0706 26.6292 41.0612H26.6297ZM25.1859 41.5332C25.1948 41.5426 25.1222 41.7334 25.0312 41.9513C24.2409 43.8676 23.2054 45.9568 21.8793 48.2996C21.5437 48.8996 21.262 49.3806 21.2531 49.3806C21.2442 49.3806 20.9714 49.217 20.6442 49.0173C18.719 47.8365 17.0114 46.3834 15.8948 44.9757L15.7308 44.776L16.5576 44.5487C19.5183 43.7406 22.034 42.8687 24.5315 41.7971C24.8859 41.6518 25.177 41.5332 25.1859 41.5332ZM34.1587 44.6668C34.1681 44.8759 33.7045 46.7467 33.3229 48.0999C33.0051 49.2353 32.7328 50.1249 32.2331 51.6962C32.0156 52.3871 31.8253 52.9585 31.8159 52.9585C31.8065 52.9585 31.7522 52.9501 31.6973 52.9318C29.0001 52.441 26.5842 51.7599 24.3136 50.852C23.6779 50.5974 22.77 50.1887 22.7151 50.1432C22.6973 50.1249 23.242 49.8709 23.9325 49.5713C28.065 47.7638 32.3512 45.7112 33.8231 44.8304C33.9956 44.7212 34.1315 44.6668 34.1587 44.6668ZM13.4423 45.3751C13.4606 45.3938 12.307 47.0556 10.6908 49.3173C10.1273 50.1071 9.47341 51.0334 9.22825 51.3784C8.94465 51.7786 8.66912 52.1844 8.40185 52.5957L8.02029 53.1863L7.61154 52.8409C7.13013 52.441 6.29482 51.5874 5.92216 51.1154C5.14122 50.1437 4.61435 49.1171 4.40575 48.182C4.30544 47.746 4.30544 47.5276 4.39638 47.5009C6.00562 47.1164 7.61626 46.7378 9.22825 46.3651C10.313 46.1154 11.3968 45.8611 12.4795 45.6024C13.0064 45.4754 13.4334 45.3751 13.4423 45.3751ZM14.6048 45.8204L14.8954 46.1471C16.2033 47.6096 17.5383 48.6906 19.155 49.6346C19.4456 49.7987 19.6636 49.944 19.6453 49.9534C19.582 49.9984 14.0325 51.969 11.4623 52.8592C10.5834 53.1706 9.7024 53.4764 8.8195 53.7765C8.8106 53.7765 8.72857 53.7217 8.6381 53.6584L8.4745 53.5403L8.73794 53.1587C9.59107 51.9235 10.6631 50.5703 12.997 47.7549L14.6048 45.8204ZM21.8526 51.0062C21.8615 50.9968 22.2609 51.1421 22.7517 51.3245C23.9325 51.7693 24.8676 52.051 26.1211 52.3688C27.6651 52.7593 29.8992 53.1409 31.2164 53.2501C31.4161 53.2679 31.5248 53.2862 31.4887 53.3134C31.425 53.3495 30.09 53.7948 29.1093 54.1032C27.547 54.594 22.7789 56.0017 18.8915 57.1187C18.4354 57.2522 17.9784 57.3825 17.5204 57.5096C17.4295 57.5274 17.1295 57.4454 17.1295 57.4093C17.1295 57.3915 17.3475 57.1098 17.6109 56.8009C18.9187 55.2385 20.2176 53.4948 21.2986 51.842C21.5986 51.3878 21.8526 51.0151 21.8526 51.0062ZM20.2542 51.0517C20.2631 51.061 19.6181 52.096 18.4917 53.8763C18.0108 54.6301 17.4745 55.4842 17.2842 55.7837C17.1023 56.0743 16.8295 56.5285 16.6758 56.7826L16.4123 57.2457L16.2759 57.2096C15.9487 57.1187 13.6509 56.3101 13.0425 56.0649C12.3209 55.7779 11.6146 55.4537 10.9265 55.0937C10.2 54.7028 9.292 54.1215 9.36466 54.1032C9.38247 54.0938 10.627 53.7582 12.1256 53.3495C16.1029 52.2685 18.3103 51.6423 19.7545 51.1881C20.0179 51.106 20.2448 51.0428 20.2537 51.0521L20.2542 51.0517ZM31.5614 53.7034H31.5708C31.6068 53.7948 30.1354 57.8813 29.5992 59.1709C29.4815 59.4615 29.4361 59.5346 29.3723 59.5253C29.2181 59.5159 27.0839 59.2168 25.785 59.026C23.5237 58.681 19.7268 58.0178 18.7739 57.7998L18.5554 57.7543L19.9087 57.4454C22.815 56.7915 24.2137 56.4376 25.6308 56.0017C27.4606 55.4421 29.2482 54.7531 30.9801 53.9396C31.2614 53.8131 31.4976 53.7123 31.5614 53.7034Z" fill="#FFC1A7"/>
<path d="M24.8132 0.00046875C24.6136 -0.0267187 21.389 1.13578 19.3096 1.98047C16.5028 3.12469 14.3236 4.21453 12.9792 5.15906C12.4795 5.51344 11.8528 6.14016 11.7529 6.38531C11.7157 6.48398 11.6972 6.58876 11.6986 6.69422L12.9159 7.84734L15.8128 8.77406L22.7062 10.0092L30.5892 11.3625L30.6712 10.6814C30.644 10.6814 30.6257 10.672 30.5986 10.672L29.5631 10.5089L29.3545 10.1363C28.2825 8.24719 27.1021 5.90391 26.4117 4.32375C25.8764 3.0975 25.3673 1.68094 25.0861 0.66375C24.9314 0.0459375 24.9136 0.009375 24.8132 0V0.00046875ZM24.6679 0.463594H24.6773C24.6862 0.472969 24.7223 0.7275 24.7589 1.02703C24.9136 2.29828 25.1948 3.52453 25.6401 4.85063C25.9757 5.84906 25.9757 5.79516 25.5853 5.67703C24.659 5.42297 20.5087 4.70531 17.5021 4.28719C17.0207 4.22391 16.612 4.16062 16.612 4.15125C16.5759 4.11469 18.7823 2.96156 19.7545 2.50734C20.9986 1.93547 24.4139 0.509063 24.6679 0.463594ZM15.9126 4.53281L16.267 4.65094C18.1926 5.30484 23.0329 6.23156 25.7034 6.44953C26.0029 6.47672 26.2575 6.50391 26.2659 6.50391C26.2753 6.51328 26.0212 6.64922 25.694 6.80344C24.4045 7.44844 22.9875 8.23875 22.0068 8.84719C21.7162 9.02859 21.4528 9.17438 21.4162 9.17438C21.3801 9.17438 21.1893 9.13781 20.9896 9.11016L20.6264 9.05578L19.7179 8.16562C18.6136 7.09007 17.5026 6.0213 16.3851 4.95937L15.9126 4.53281ZM15.5493 4.81453L16.83 6.41297C17.5293 7.29422 18.2381 8.15672 18.3923 8.3475C18.5465 8.53828 18.6736 8.6925 18.6642 8.70187C18.6281 8.72906 16.8117 8.37469 15.8493 8.15719C14.8593 7.92984 14.4506 7.82063 13.8421 7.62984L13.3425 7.46625V7.33969C13.3518 6.73031 14.1239 5.82234 15.4312 4.89656L15.5493 4.81453ZM26.43 6.99422C26.4661 6.99422 26.5115 7.07578 26.6203 7.32094C26.9296 8.00203 27.892 9.83672 28.1282 10.1911C28.2009 10.3092 28.3279 10.3186 27.0473 10.1095C23.9686 9.60984 22.9786 9.44625 22.9786 9.42844C22.9786 9.41906 23.0695 9.35578 23.1876 9.29203C24.1415 8.76516 25.1039 8.09344 25.9579 7.37578C26.1665 7.20328 26.3573 7.03969 26.3939 7.0125C26.4028 6.99422 26.4206 6.98531 26.43 6.99422Z" fill="#FFC1A7"/>
<path d="M11.8167 6.25781C11.8167 6.25781 11.617 6.57609 11.8073 7.04859C11.9254 7.33922 12.2704 7.69313 12.6614 8.05641C12.6614 8.05641 16.7025 11.9981 17.1932 12.5611C19.4273 15.1406 20.3995 17.6836 20.49 21.1894C20.5448 23.4417 20.1178 25.4217 19.0551 27.7195C17.1661 31.8427 13.1789 36.3933 7.03027 41.4427L7.92934 41.1427C8.51059 40.7067 9.3009 40.2441 11.1539 39.2269C15.4312 36.8831 20.2448 34.7311 26.1482 32.5144C34.649 29.3175 48.6267 25.5759 56.5823 24.3591L57.4092 24.232L57.2817 24.0319C56.5551 22.9055 56.0554 22.2066 55.4559 21.4617C53.7121 19.3003 51.5967 17.5477 49.0078 16.0945C45.4476 14.1052 40.8431 12.5522 35.0123 11.3991C33.9131 11.1806 31.4971 10.763 29.5354 10.4634C26.2612 9.95966 22.9916 9.42683 19.7268 8.865C18.6642 8.68313 17.0746 8.41078 16.0214 8.18344C15.4762 8.06531 14.4323 7.82016 13.6148 7.53891C12.9609 7.28437 12.0164 7.03031 11.8162 6.25828L11.8167 6.25781ZM14.16 8.52844C14.1689 8.52 14.3142 8.57437 14.505 8.63766C14.94 8.7838 15.3793 8.91714 15.8221 9.0375C16.2207 9.14713 16.6202 9.25307 17.0207 9.35531C17.5654 9.49125 18.0196 9.61828 18.0286 9.61828C18.0923 9.68203 19.0096 12.6155 19.3186 13.7419C19.4367 14.1684 19.5276 14.5317 19.5187 14.5317C19.5093 14.5411 19.4095 14.3864 19.2914 14.1778C18.2287 12.307 16.5487 10.4091 14.6048 8.88281C14.3507 8.70141 14.16 8.53781 14.16 8.52844ZM18.6281 9.76406C18.674 9.76406 18.8737 9.79125 19.1189 9.84562C20.6625 10.1906 23.4328 10.7175 25.2032 11.0175C25.5032 11.063 25.7395 11.1173 25.7395 11.1352C25.7395 11.1539 25.6307 11.2172 25.4943 11.2898C25.1943 11.4441 23.9868 12.1617 23.587 12.4336C22.5792 13.1062 21.6707 13.8328 21.0168 14.4867C20.7534 14.7502 20.5265 14.9681 20.5265 14.9681C20.5265 14.9681 20.4721 14.8134 20.4262 14.6231C20.0995 13.3603 19.4184 11.4895 18.8006 10.1723C18.7007 9.96375 18.6192 9.77297 18.6192 9.75516C18.6192 9.77297 18.6187 9.76406 18.6281 9.76406ZM26.4937 11.2622C26.5481 11.2809 26.639 11.5894 26.8204 12.2705C27.1611 13.6295 27.3079 15.03 27.2564 16.4302C27.2381 16.8117 27.2198 17.1661 27.2015 17.2116L27.1743 17.302L26.7023 17.1473C25.7306 16.8389 24.1504 16.3758 22.7971 15.9942C22.0251 15.7852 21.3984 15.5948 21.3984 15.577C21.3984 15.5222 22.5248 14.3958 23.0062 13.9692C23.9231 13.1606 26.4117 11.2355 26.4937 11.2622ZM27.12 11.3531C27.1471 11.3259 30.8803 11.9705 32.5786 12.2977C33.8414 12.5428 35.6756 12.9244 35.7848 12.9698C35.8387 12.9881 35.6484 13.0964 35.0395 13.3697C32.6418 14.4502 30.862 15.4219 29.0911 16.6027C28.6279 16.9116 28.237 17.1661 28.2286 17.1661C28.2192 17.1661 28.2098 16.9027 28.2098 16.5848C28.2098 14.8594 27.8653 13.1152 27.2292 11.6442C27.1654 11.4989 27.1111 11.3625 27.12 11.3536V11.3531ZM36.7743 13.2609C36.8015 13.2877 36.6839 14.0236 36.5746 14.4595C36.2475 15.8128 35.3667 17.82 34.2862 19.7091C34.095 20.0452 33.9225 20.3175 33.9042 20.3264C33.8864 20.3358 33.6417 20.1994 33.3595 20.0358C32.3062 19.418 31.1071 18.8372 29.7993 18.292C29.4361 18.1373 29.1182 18.0108 29.1093 17.992C29.0456 17.9381 31.9701 16.0036 33.5137 15.0769C34.7404 14.332 36.7387 13.2244 36.7743 13.2605V13.2609ZM37.4648 13.3697C37.5464 13.3697 39.1992 13.8234 40.0621 14.078C42.1964 14.7136 44.6489 15.6127 46.2473 16.3392L46.9101 16.6392L46.447 16.748C42.5423 17.647 39.1996 18.683 35.9751 19.9903C35.7117 20.0995 35.4754 20.1905 35.4576 20.1905C35.4398 20.1905 35.5303 19.9814 35.6484 19.7273C36.6201 17.6653 37.2468 15.5133 37.4015 13.6781C37.4104 13.5056 37.4376 13.3697 37.4648 13.3697ZM21.0079 17.1478C21.0351 17.1206 22.297 17.4202 22.9786 17.6109C24.0145 17.9016 26.212 18.6375 26.212 18.6914C26.212 18.7008 25.9668 18.9098 25.6762 19.1639C24.4865 20.1539 23.3418 21.1983 21.9703 22.5244C21.562 22.9148 21.217 23.2327 21.1987 23.2327C21.18 23.2327 21.1715 23.1783 21.18 23.1056C21.389 21.5798 21.344 19.6181 21.0534 17.6292C21.0257 17.3747 20.999 17.1567 21.0079 17.1478ZM47.5368 17.175C47.5546 17.1933 46.9556 18.1373 46.574 18.6731C46.0293 19.4545 45.2296 20.49 43.4226 22.7606C42.6263 23.7601 41.8332 24.7622 41.0432 25.7667C40.68 26.2209 40.3804 26.602 40.3706 26.602C40.3621 26.602 40.244 26.4389 40.1165 26.2392C39.0993 24.713 37.8825 23.378 36.4382 22.1794C36.2181 21.9931 35.9941 21.8113 35.7665 21.6342C35.6662 21.5616 35.5846 21.4889 35.5846 21.4795C35.5846 21.4528 37.1282 20.7895 38.3001 20.3175C40.3532 19.4817 43.1498 18.4828 45.2484 17.8378C46.3471 17.4928 47.5186 17.1567 47.5368 17.175ZM48.2362 17.3564C48.2723 17.3475 48.4907 17.4567 48.7537 17.6109C50.9611 18.8733 53.1225 20.4994 54.8296 22.17C55.3111 22.6425 56.5012 23.8777 56.4829 23.8866C56.4829 23.8866 56.0648 23.9231 55.5745 23.9592C51.7509 24.2498 46.8557 25.058 42.1514 26.1933C41.8331 26.2659 41.5514 26.3292 41.5336 26.3292C41.5157 26.3292 41.8696 25.9753 42.315 25.5487C45.0759 22.8877 46.3382 21.2077 47.8275 18.21C48.0365 17.7656 48.2179 17.3836 48.2362 17.3564C48.2268 17.3564 48.2268 17.3564 48.2362 17.3564ZM28.0101 19.4273C28.1371 19.4545 29.3179 20.0086 30.2081 20.4539C31.0256 20.8622 32.2518 21.5161 32.3151 21.5709C32.3245 21.5798 31.8886 21.8067 31.3523 22.0706C29.7513 22.8666 28.1847 23.73 26.6568 24.6586C26.2209 24.922 25.8576 25.14 25.8487 25.14C25.8121 25.14 25.8215 25.1034 26.0667 24.6586C26.8842 23.1694 27.5381 21.3891 27.9103 19.6542C27.9464 19.5183 27.9829 19.4273 28.0101 19.4273ZM26.8293 19.6453C26.8565 19.6725 26.5481 20.7895 26.3573 21.3984C25.9846 22.5516 25.3579 23.9953 24.7495 25.0856C24.6042 25.3397 24.3862 25.7123 24.2681 25.9209L24.0412 26.2842L23.5326 25.7939C22.942 25.222 22.4611 24.8677 21.8437 24.5494C21.5981 24.4228 21.4073 24.3136 21.4073 24.2953C21.4073 24.2227 22.9607 22.815 24.1504 21.7978C25.0036 21.0619 26.8021 19.6181 26.8293 19.6453ZM34.05 22.6153L34.4953 22.9059C35.5125 23.5692 36.7111 24.45 37.6284 25.2216C38.1459 25.6481 39.1448 26.5481 39.345 26.7656L39.4537 26.8837L38.7178 27.0928C34.5586 28.2459 31.3434 29.2725 27.5925 30.653C27.1743 30.8077 26.8204 30.9342 26.7932 30.9342C26.7389 30.9342 26.6934 30.9797 27.629 30.1167C30.0267 27.9103 32.1515 25.4761 33.7321 23.1056L34.05 22.6153ZM32.1515 23.0873C32.1703 23.1056 30.9257 24.8583 30.1809 25.8483C29.2907 27.0291 27.7106 29.0091 26.6203 30.2986C26.1665 30.8348 25.7765 31.2797 25.7578 31.2886C25.7306 31.298 25.7212 31.162 25.7212 30.9525C25.7212 29.8538 25.44 28.6819 24.9496 27.683C24.7406 27.2653 24.704 27.1655 24.75 27.12C24.9225 26.9653 27.5653 25.4578 29.2359 24.5588C30.3628 23.9592 32.1243 23.0695 32.1515 23.0873ZM20.6718 25.9031C20.699 25.9031 20.9076 26.0119 21.1443 26.1389C21.697 26.4401 22.22 26.793 22.7062 27.1927C22.7245 27.2105 22.4882 27.4017 22.1793 27.6286C21.3168 28.2459 20.009 29.2364 19.2459 29.8448C18.4467 30.4805 18.4195 30.4983 18.51 30.3623C19.11 29.445 19.4095 28.9275 19.7273 28.2642C20.0197 27.6474 20.2744 27.0134 20.49 26.3658C20.5626 26.1033 20.6536 25.9031 20.6718 25.9031ZM23.7328 28.3003C23.7778 28.2919 23.8326 28.3734 24.0773 28.7367C24.5948 29.5088 24.9946 30.5442 25.0945 31.3795L25.1132 31.5609L23.8687 32.0428C21.6436 32.9053 19.5909 33.7589 18.2015 34.395C17.6939 34.633 17.1883 34.8752 16.6846 35.1216C16.2393 35.3484 15.8765 35.5209 15.8765 35.512C15.8765 35.5031 16.1578 35.2941 16.5028 35.0395C19.2187 33.0689 21.5709 30.907 23.3329 28.7456C23.5237 28.5187 23.6962 28.3097 23.714 28.3008L23.7328 28.3003ZM22.3246 28.6458C22.3612 28.6819 21.3257 29.8538 20.6175 30.5714C18.8643 32.3602 17.13 33.7589 14.9775 35.1211C14.7046 35.2936 14.4595 35.4483 14.4323 35.4661C14.369 35.5027 14.4501 35.4117 15.3951 34.3856C15.949 33.7911 16.4734 33.1697 16.9664 32.5238C17.3114 32.0784 17.3746 32.0152 17.8743 31.6613C19.2098 30.698 22.2886 28.6097 22.3246 28.6458Z" fill="#FFC1A7"/>
</g>
<defs>
<clipPath id="clip0_161_72">
<rect width="60" height="60" fill="white"/>
</clipPath>
</defs>
</svg>
