<svg width="60" height="60" viewBox="0 0 60 60" fill="none" xmlns="http://www.w3.org/2000/svg">
<path d="M30 15C23.325 15 19.175 18.325 17.5 25C20 21.675 22.925 20.425 26.25 21.25C28.15 21.725 29.525 23.1 31.025 24.625C33.475 27.125 36.25 30 42.5 30C49.175 30 53.325 26.675 55 20C52.5 23.325 49.575 24.575 46.25 23.75C44.35 23.275 43 21.9 41.475 20.375C39.025 17.875 36.25 15 30 15ZM17.5 30C10.825 30 6.675 33.325 5 40C7.5 36.675 10.425 35.425 13.75 36.25C15.65 36.725 17 38.1 18.525 39.625C20.975 42.125 23.75 45 30 45C36.675 45 40.825 41.675 42.5 35C40 38.325 37.075 39.575 33.75 38.75C31.85 38.275 30.5 36.9 28.975 35.375C26.525 32.875 23.75 30 17.5 30Z" fill="#FFC1A7"/>
</svg>
