<svg width="60" height="60" viewBox="0 0 60 60" fill="none" xmlns="http://www.w3.org/2000/svg">
<g clip-path="url(#clip0_141_79)">
<path d="M49.2675 9.85008C49.756 9.02008 50.5452 8.40986 51.4714 8.14588C52.3976 7.88189 53.3899 7.98438 54.2426 8.4321C55.0953 8.87982 55.743 9.63846 56.0516 10.5508C56.3601 11.4631 56.3059 12.4592 55.9 13.3326L55.7325 13.6526L33.2325 51.9026C32.9167 52.4392 32.4723 52.8887 31.9394 53.2107C31.4064 53.5326 30.8017 53.7167 30.1798 53.7465C29.5579 53.7762 28.9384 53.6507 28.3771 53.3812C27.8159 53.1116 27.3306 52.7066 26.965 52.2026L26.7675 51.9026L4.2675 13.6526C3.77626 12.8221 3.62404 11.8342 3.84251 10.8944C4.06097 9.95452 4.6333 9.13506 5.44048 8.60638C6.24766 8.07771 7.22756 7.88052 8.1764 8.05581C9.12524 8.23111 9.97 8.7654 10.535 9.54758L10.7325 9.84758L30 42.6076L49.2675 9.85008ZM37.0675 9.83758C37.556 9.00758 38.3452 8.39736 39.2714 8.13337C40.1976 7.86939 41.1899 7.97188 42.0426 8.4196C42.8953 8.86732 43.543 9.62596 43.8516 10.5383C44.1601 11.4506 44.1059 12.4467 43.7 13.3201L43.5325 13.6401L33.2325 31.1501C32.917 31.6868 32.4727 32.1366 31.9399 32.4587C31.4071 32.7809 30.8024 32.9653 30.1805 32.9953C29.5586 33.0253 28.939 32.9 28.3776 32.6307C27.8162 32.3613 27.3308 31.9565 26.965 31.4526L26.7675 31.1526L16.475 13.6501C15.9838 12.8196 15.8315 11.8317 16.05 10.8919C16.2685 9.95202 16.8408 9.13256 17.648 8.60388C18.4552 8.07521 19.4351 7.87802 20.3839 8.05331C21.3327 8.22861 22.1775 8.7629 22.7425 9.54508L22.94 9.84508L30 21.8576L37.0675 9.83758Z" fill="#FFC1A7"/>
</g>
<defs>
<clipPath id="clip0_141_79">
<rect width="60" height="60" fill="white"/>
</clipPath>
</defs>
</svg>
